solid Created by Gmsh
facet normal 0 0 -1
  outer loop
    vertex 0.2500000000010419 0 0
    vertex 0 0 0
    vertex 0.1830127018931349 0.1830127018926979 0
  endloop
endfacet
facet normal 0 0 -1
  outer loop
    vertex 0 0 0
    vertex 0 0.2499999999994109 0
    vertex 0.1830127018931349 0.1830127018926979 0
  endloop
endfacet
facet normal 0 -0 -1
  outer loop
    vertex 1 0.2500000000010419 0
    vertex 1 0 0
    vertex 0.8169872981072783 0.1830127018930938 0
  endloop
endfacet
facet normal 0 0 -1
  outer loop
    vertex 1 0 0
    vertex 0.7500000000003477 0 0
    vertex 0.8169872981072783 0.1830127018930938 0
  endloop
endfacet
facet normal 0 0 -1
  outer loop
    vertex 0.7499999999993401 1 0
    vertex 1 1 0
    vertex 0.8169872981071885 0.8169872981074585 0
  endloop
endfacet
facet normal 0 -0 -1
  outer loop
    vertex 1 1 0
    vertex 1 0.7500000000003477 0
    vertex 0.8169872981071885 0.8169872981074585 0
  endloop
endfacet
facet normal 0 0 -1
  outer loop
    vertex 0 1 0
    vertex 0.2499999999994109 1 0
    vertex 0.1780061950165382 0.8351749060017322 0
  endloop
endfacet
facet normal 0 0 -1
  outer loop
    vertex 0 0.7499999999993401 0
    vertex 0 1 0
    vertex 0.1780061950165382 0.8351749060017322 0
  endloop
endfacet
facet normal 0 0 -1
  outer loop
    vertex 0.2499999999994109 1 0
    vertex 0.4999999999986918 1 0
    vertex 0.3855439771726533 0.8112741566735273 0
  endloop
endfacet
facet normal 0 -0 -1
  outer loop
    vertex 0.2499999999994109 1 0
    vertex 0.3855439771726533 0.8112741566735273 0
    vertex 0.1780061950165382 0.8351749060017322 0
  endloop
endfacet
facet normal 0 0 -1
  outer loop
    vertex 0.4999999999986918 1 0
    vertex 0.7499999999993401 1 0
    vertex 0.6243689539557369 0.8080509614599705 0
  endloop
endfacet
facet normal 0 -0 -1
  outer loop
    vertex 0.4999999999986918 1 0
    vertex 0.6243689539557369 0.8080509614599705 0
    vertex 0.3855439771726533 0.8112741566735273 0
  endloop
endfacet
facet normal 0 0 -1
  outer loop
    vertex 0.6243689539557369 0.8080509614599705 0
    vertex 0.7499999999993401 1 0
    vertex 0.8169872981071885 0.8169872981074585 0
  endloop
endfacet
facet normal 0 -0 -1
  outer loop
    vertex 1 0.7500000000003477 0
    vertex 1 0.5000000000020616 0
    vertex 0.7478815024664029 0.6139924015723902 0
  endloop
endfacet
facet normal -0 0 -1
  outer loop
    vertex 1 0.7500000000003477 0
    vertex 0.7478815024664029 0.6139924015723902 0
    vertex 0.8169872981071885 0.8169872981074585 0
  endloop
endfacet
facet normal 0 -0 -1
  outer loop
    vertex 1 0.5000000000020616 0
    vertex 1 0.2500000000010419 0
    vertex 0.7867687832230401 0.3640932128839356 0
  endloop
endfacet
facet normal -0 0 -1
  outer loop
    vertex 1 0.5000000000020616 0
    vertex 0.7867687832230401 0.3640932128839356 0
    vertex 0.7478815024664029 0.6139924015723902 0
  endloop
endfacet
facet normal 0 0 -1
  outer loop
    vertex 0.7867687832230401 0.3640932128839356 0
    vertex 1 0.2500000000010419 0
    vertex 0.8169872981072783 0.1830127018930938 0
  endloop
endfacet
facet normal 0 0 -1
  outer loop
    vertex 0.7500000000003477 0 0
    vertex 0.5000000000020616 0 0
    vertex 0.6215671767908426 0.1979210047255828 0
  endloop
endfacet
facet normal 0 0 -1
  outer loop
    vertex 0.7500000000003477 0 0
    vertex 0.6215671767908426 0.1979210047255828 0
    vertex 0.8169872981072783 0.1830127018930938 0
  endloop
endfacet
facet normal 0 0 -1
  outer loop
    vertex 0.5000000000020616 0 0
    vertex 0.2500000000010419 0 0
    vertex 0.3753337416957952 0.2110423218192964 0
  endloop
endfacet
facet normal 0 0 -1
  outer loop
    vertex 0.5000000000020616 0 0
    vertex 0.3753337416957952 0.2110423218192964 0
    vertex 0.6215671767908426 0.1979210047255828 0
  endloop
endfacet
facet normal 0 0 -1
  outer loop
    vertex 0.3753337416957952 0.2110423218192964 0
    vertex 0.2500000000010419 0 0
    vertex 0.1830127018931349 0.1830127018926979 0
  endloop
endfacet
facet normal 0 0 -1
  outer loop
    vertex 0 0.2499999999994109 0
    vertex 0 0.4999999999986918 0
    vertex 0.2167990069479855 0.3712961061742477 0
  endloop
endfacet
facet normal 0 0 -1
  outer loop
    vertex 0 0.2499999999994109 0
    vertex 0.2167990069479855 0.3712961061742477 0
    vertex 0.1830127018931349 0.1830127018926979 0
  endloop
endfacet
facet normal 0 0 -1
  outer loop
    vertex 0 0.4999999999986918 0
    vertex 0 0.7499999999993401 0
    vertex 0.2544869979106267 0.614600373335793 0
  endloop
endfacet
facet normal 0 0 -1
  outer loop
    vertex 0 0.4999999999986918 0
    vertex 0.2544869979106267 0.614600373335793 0
    vertex 0.2167990069479855 0.3712961061742477 0
  endloop
endfacet
facet normal 0 0 -1
  outer loop
    vertex 0.2544869979106267 0.614600373335793 0
    vertex 0 0.7499999999993401 0
    vertex 0.1780061950165382 0.8351749060017322 0
  endloop
endfacet
facet normal -0 0 -1
  outer loop
    vertex 0.7867687832230401 0.3640932128839356 0
    vertex 0.6215671767908426 0.1979210047255828 0
    vertex 0.50565027269992 0.4308090314147043 0
  endloop
endfacet
facet normal 0 0 -1
  outer loop
    vertex 0.6215671767908426 0.1979210047255828 0
    vertex 0.7867687832230401 0.3640932128839356 0
    vertex 0.8169872981072783 0.1830127018930938 0
  endloop
endfacet
facet normal 0 0 -1
  outer loop
    vertex 0.7867687832230401 0.3640932128839356 0
    vertex 0.50565027269992 0.4308090314147043 0
    vertex 0.7478815024664029 0.6139924015723902 0
  endloop
endfacet
facet normal 0 0 -1
  outer loop
    vertex 0.6215671767908426 0.1979210047255828 0
    vertex 0.3753337416957952 0.2110423218192964 0
    vertex 0.50565027269992 0.4308090314147043 0
  endloop
endfacet
facet normal 0 0 -1
  outer loop
    vertex 0.50565027269992 0.4308090314147043 0
    vertex 0.3753337416957952 0.2110423218192964 0
    vertex 0.2167990069479855 0.3712961061742477 0
  endloop
endfacet
facet normal 0 -0 -1
  outer loop
    vertex 0.2167990069479855 0.3712961061742477 0
    vertex 0.3753337416957952 0.2110423218192964 0
    vertex 0.1830127018931349 0.1830127018926979 0
  endloop
endfacet
facet normal 0 -0 -1
  outer loop
    vertex 0.2544869979106267 0.614600373335793 0
    vertex 0.50565027269992 0.4308090314147043 0
    vertex 0.2167990069479855 0.3712961061742477 0
  endloop
endfacet
facet normal 0 0 -1
  outer loop
    vertex 0.50565027269992 0.4308090314147043 0
    vertex 0.2544869979106267 0.614600373335793 0
    vertex 0.503586340841068 0.6557453848912771 0
  endloop
endfacet
facet normal 0 0 -1
  outer loop
    vertex 0.2544869979106267 0.614600373335793 0
    vertex 0.3855439771726533 0.8112741566735273 0
    vertex 0.503586340841068 0.6557453848912771 0
  endloop
endfacet
facet normal -0 0 -1
  outer loop
    vertex 0.3855439771726533 0.8112741566735273 0
    vertex 0.2544869979106267 0.614600373335793 0
    vertex 0.1780061950165382 0.8351749060017322 0
  endloop
endfacet
facet normal 0 -0 -1
  outer loop
    vertex 0.6243689539557369 0.8080509614599705 0
    vertex 0.7478815024664029 0.6139924015723902 0
    vertex 0.503586340841068 0.6557453848912771 0
  endloop
endfacet
facet normal 0 0 -1
  outer loop
    vertex 0.7478815024664029 0.6139924015723902 0
    vertex 0.6243689539557369 0.8080509614599705 0
    vertex 0.8169872981071885 0.8169872981074585 0
  endloop
endfacet
facet normal 0 0 -1
  outer loop
    vertex 0.3855439771726533 0.8112741566735273 0
    vertex 0.6243689539557369 0.8080509614599705 0
    vertex 0.503586340841068 0.6557453848912771 0
  endloop
endfacet
facet normal -0 0 -1
  outer loop
    vertex 0.7478815024664029 0.6139924015723902 0
    vertex 0.50565027269992 0.4308090314147043 0
    vertex 0.503586340841068 0.6557453848912771 0
  endloop
endfacet
facet normal -1 0 0
  outer loop
    vertex 1 0 0
    vertex 1 0.1830127020221846 0.1830127026658178
    vertex 1 0.2500000000010419 0
  endloop
endfacet
facet normal -1 0 0
  outer loop
    vertex 1 0 0.2499999999994109
    vertex 1 0.1830127020221846 0.1830127026658178
    vertex 1 0 0
  endloop
endfacet
facet normal -1 0 0
  outer loop
    vertex 1 0.7500000000003477 0
    vertex 1 0.8169872983440857 0.1830127010117793
    vertex 1 1 0
  endloop
endfacet
facet normal -1 0 0
  outer loop
    vertex 1 1 0
    vertex 1 0.8169872983440857 0.1830127010117793
    vertex 1 1 0.2499999999994109
  endloop
endfacet
facet normal -1 -0 0
  outer loop
    vertex 1 1 1
    vertex 1 0.816987297978409 0.8169872979781388
    vertex 1 0.7500000000003477 1
  endloop
endfacet
facet normal -1 0 0
  outer loop
    vertex 1 1 0.7499999999993401
    vertex 1 0.816987297978409 0.8169872979781388
    vertex 1 1 1
  endloop
endfacet
facet normal -1 -0 0
  outer loop
    vertex 1 0.2500000000010419 1
    vertex 1 0.1815079327373219 0.8184920672627829
    vertex 1 0 1
  endloop
endfacet
facet normal -1 0 0
  outer loop
    vertex 1 0 1
    vertex 1 0.1815079327373219 0.8184920672627829
    vertex 1 0 0.7499999999993401
  endloop
endfacet
facet normal -1 0 0
  outer loop
    vertex 1 0.5000000000020616 0
    vertex 1 0.6245279260048617 0.2113539509074936
    vertex 1 0.7500000000003477 0
  endloop
endfacet
facet normal -1 0 0
  outer loop
    vertex 1 0.6245279260048617 0.2113539509074936
    vertex 1 0.8169872983440857 0.1830127010117793
    vertex 1 0.7500000000003477 0
  endloop
endfacet
facet normal -1 0 0
  outer loop
    vertex 1 0.2500000000010419 0
    vertex 1 0.3846687838341319 0.2109240761231569
    vertex 1 0.5000000000020616 0
  endloop
endfacet
facet normal -1 0 0
  outer loop
    vertex 1 0.3846687838341319 0.2109240761231569
    vertex 1 0.6245279260048617 0.2113539509074936
    vertex 1 0.5000000000020616 0
  endloop
endfacet
facet normal -1 0 0
  outer loop
    vertex 1 0.2500000000010419 0
    vertex 1 0.1830127020221846 0.1830127026658178
    vertex 1 0.3846687838341319 0.2109240761231569
  endloop
endfacet
facet normal -1 -0 0
  outer loop
    vertex 1 0.7500000000003477 1
    vertex 1 0.6409766963513408 0.8053554664352968
    vertex 1 0.5000000000020616 1
  endloop
endfacet
facet normal -1 0 -0
  outer loop
    vertex 1 0.7500000000003477 1
    vertex 1 0.816987297978409 0.8169872979781388
    vertex 1 0.6409766963513408 0.8053554664352968
  endloop
endfacet
facet normal -1 -0 0
  outer loop
    vertex 1 0.5000000000020616 1
    vertex 1 0.3829082620809298 0.7742952261641267
    vertex 1 0.2500000000010419 1
  endloop
endfacet
facet normal -1 0 -0
  outer loop
    vertex 1 0.5000000000020616 1
    vertex 1 0.6409766963513408 0.8053554664352968
    vertex 1 0.3829082620809298 0.7742952261641267
  endloop
endfacet
facet normal -1 0 0
  outer loop
    vertex 1 0.3829082620809298 0.7742952261641267
    vertex 1 0.1815079327373219 0.8184920672627829
    vertex 1 0.2500000000010419 1
  endloop
endfacet
facet normal -1 0 0
  outer loop
    vertex 1 1 0.2499999999994109
    vertex 1 0.7764715650677869 0.3930291389628999
    vertex 1 1 0.4999999999986918
  endloop
endfacet
facet normal -1 -0 0
  outer loop
    vertex 1 1 0.2499999999994109
    vertex 1 0.8169872983440857 0.1830127010117793
    vertex 1 0.7764715650677869 0.3930291389628999
  endloop
endfacet
facet normal -1 0 0
  outer loop
    vertex 1 1 0.4999999999986918
    vertex 1 0.802323440362934 0.6408098270524856
    vertex 1 1 0.7499999999993401
  endloop
endfacet
facet normal -1 -0 0
  outer loop
    vertex 1 1 0.4999999999986918
    vertex 1 0.7764715650677869 0.3930291389628999
    vertex 1 0.802323440362934 0.6408098270524856
  endloop
endfacet
facet normal -1 0 0
  outer loop
    vertex 1 0.802323440362934 0.6408098270524856
    vertex 1 0.816987297978409 0.8169872979781388
    vertex 1 1 0.7499999999993401
  endloop
endfacet
facet normal -1 0 0
  outer loop
    vertex 1 0 0.4999999999986918
    vertex 1 0.2304597135959794 0.394236858063008
    vertex 1 0 0.2499999999994109
  endloop
endfacet
facet normal -1 0 0
  outer loop
    vertex 1 0.2304597135959794 0.394236858063008
    vertex 1 0.1830127020221846 0.1830127026658178
    vertex 1 0 0.2499999999994109
  endloop
endfacet
facet normal -1 0 0
  outer loop
    vertex 1 0 0.7499999999993401
    vertex 1 0.1815045070444808 0.6312063377111312
    vertex 1 0 0.4999999999986918
  endloop
endfacet
facet normal -1 0 0
  outer loop
    vertex 1 0 0.4999999999986918
    vertex 1 0.1815045070444808 0.6312063377111312
    vertex 1 0.2304597135959794 0.394236858063008
  endloop
endfacet
facet normal -1 0 0
  outer loop
    vertex 1 0 0.7499999999993401
    vertex 1 0.1815079327373219 0.8184920672627829
    vertex 1 0.1815045070444808 0.6312063377111312
  endloop
endfacet
facet normal -1 0 0
  outer loop
    vertex 1 0.6409766963513408 0.8053554664352968
    vertex 1 0.59364118107203 0.600040447068504
    vertex 1 0.3829082620809298 0.7742952261641267
  endloop
endfacet
facet normal -1 0 0
  outer loop
    vertex 1 0.3829082620809298 0.7742952261641267
    vertex 1 0.3773688476154244 0.5680660678454917
    vertex 1 0.1815045070444808 0.6312063377111312
  endloop
endfacet
facet normal -1 0 0
  outer loop
    vertex 1 0.1815045070444808 0.6312063377111312
    vertex 1 0.1815079327373219 0.8184920672627829
    vertex 1 0.3829082620809298 0.7742952261641267
  endloop
endfacet
facet normal -1 0 -0
  outer loop
    vertex 1 0.3829082620809298 0.7742952261641267
    vertex 1 0.59364118107203 0.600040447068504
    vertex 1 0.3773688476154244 0.5680660678454917
  endloop
endfacet
facet normal -1 0 0
  outer loop
    vertex 1 0.3846687838341319 0.2109240761231569
    vertex 1 0.5030682643452562 0.4047588472198274
    vertex 1 0.6245279260048617 0.2113539509074936
  endloop
endfacet
facet normal -1 0 0
  outer loop
    vertex 1 0.3846687838341319 0.2109240761231569
    vertex 1 0.2304597135959794 0.394236858063008
    vertex 1 0.5030682643452562 0.4047588472198274
  endloop
endfacet
facet normal -1 -0 0
  outer loop
    vertex 1 0.3846687838341319 0.2109240761231569
    vertex 1 0.1830127020221846 0.1830127026658178
    vertex 1 0.2304597135959794 0.394236858063008
  endloop
endfacet
facet normal -1 0 0
  outer loop
    vertex 1 0.7764715650677869 0.3930291389628999
    vertex 1 0.59364118107203 0.600040447068504
    vertex 1 0.802323440362934 0.6408098270524856
  endloop
endfacet
facet normal -1 0 0
  outer loop
    vertex 1 0.6409766963513408 0.8053554664352968
    vertex 1 0.816987297978409 0.8169872979781388
    vertex 1 0.802323440362934 0.6408098270524856
  endloop
endfacet
facet normal -1 -0 0
  outer loop
    vertex 1 0.802323440362934 0.6408098270524856
    vertex 1 0.59364118107203 0.600040447068504
    vertex 1 0.6409766963513408 0.8053554664352968
  endloop
endfacet
facet normal -1 0 0
  outer loop
    vertex 1 0.5030682643452562 0.4047588472198274
    vertex 1 0.7764715650677869 0.3930291389628999
    vertex 1 0.6245279260048617 0.2113539509074936
  endloop
endfacet
facet normal -1 0 -0
  outer loop
    vertex 1 0.7764715650677869 0.3930291389628999
    vertex 1 0.8169872983440857 0.1830127010117793
    vertex 1 0.6245279260048617 0.2113539509074936
  endloop
endfacet
facet normal -1 0 0
  outer loop
    vertex 1 0.2304597135959794 0.394236858063008
    vertex 1 0.3773688476154244 0.5680660678454917
    vertex 1 0.5030682643452562 0.4047588472198274
  endloop
endfacet
facet normal -1 0 0
  outer loop
    vertex 1 0.5030682643452562 0.4047588472198274
    vertex 1 0.59364118107203 0.600040447068504
    vertex 1 0.7764715650677869 0.3930291389628999
  endloop
endfacet
facet normal -1 0 0
  outer loop
    vertex 1 0.3773688476154244 0.5680660678454917
    vertex 1 0.59364118107203 0.600040447068504
    vertex 1 0.5030682643452562 0.4047588472198274
  endloop
endfacet
facet normal -1 0 0
  outer loop
    vertex 1 0.1815045070444808 0.6312063377111312
    vertex 1 0.3773688476154244 0.5680660678454917
    vertex 1 0.2304597135959794 0.394236858063008
  endloop
endfacet
facet normal 0 1 0
  outer loop
    vertex 0 0 0
    vertex 0.1830127020221846 0 0.1830127026658178
    vertex 0.2500000000010419 0 0
  endloop
endfacet
facet normal 0 1 0
  outer loop
    vertex 0 0 0.2499999999994109
    vertex 0.1830127020221846 0 0.1830127026658178
    vertex 0 0 0
  endloop
endfacet
facet normal 0 1 0
  outer loop
    vertex 0.7500000000003477 0 0
    vertex 0.8169872983440857 0 0.1830127010117793
    vertex 1 0 0
  endloop
endfacet
facet normal 0 1 -0
  outer loop
    vertex 1 0 0
    vertex 0.8169872983440857 0 0.1830127010117793
    vertex 1 0 0.2499999999994109
  endloop
endfacet
facet normal 0 1 0
  outer loop
    vertex 1 0 1
    vertex 0.816987297978409 0 0.8169872979781388
    vertex 0.7500000000003477 0 1
  endloop
endfacet
facet normal 0 1 -0
  outer loop
    vertex 1 0 0.7499999999993401
    vertex 0.816987297978409 0 0.8169872979781388
    vertex 1 0 1
  endloop
endfacet
facet normal 0 1 0
  outer loop
    vertex 0.2500000000010419 0 1
    vertex 0.1815079327373219 0 0.8184920672627829
    vertex 0 0 1
  endloop
endfacet
facet normal 0 1 0
  outer loop
    vertex 0 0 1
    vertex 0.1815079327373219 0 0.8184920672627829
    vertex 0 0 0.7499999999993401
  endloop
endfacet
facet normal 0 1 0
  outer loop
    vertex 0.5000000000020616 0 0
    vertex 0.6245279260048617 0 0.2113539509074936
    vertex 0.7500000000003477 0 0
  endloop
endfacet
facet normal 0 1 0
  outer loop
    vertex 0.6245279260048617 0 0.2113539509074936
    vertex 0.8169872983440857 0 0.1830127010117793
    vertex 0.7500000000003477 0 0
  endloop
endfacet
facet normal 0 1 0
  outer loop
    vertex 0.2500000000010419 0 0
    vertex 0.3846687838341319 0 0.2109240761231569
    vertex 0.5000000000020616 0 0
  endloop
endfacet
facet normal -0 1 0
  outer loop
    vertex 0.3846687838341319 0 0.2109240761231569
    vertex 0.6245279260048617 0 0.2113539509074936
    vertex 0.5000000000020616 0 0
  endloop
endfacet
facet normal 0 1 -0
  outer loop
    vertex 0.2500000000010419 0 0
    vertex 0.1830127020221846 0 0.1830127026658178
    vertex 0.3846687838341319 0 0.2109240761231569
  endloop
endfacet
facet normal 0 1 0
  outer loop
    vertex 0.7500000000003477 0 1
    vertex 0.6409766963513408 0 0.8053554664352968
    vertex 0.5000000000020616 0 1
  endloop
endfacet
facet normal 0 1 0
  outer loop
    vertex 0.7500000000003477 0 1
    vertex 0.816987297978409 0 0.8169872979781388
    vertex 0.6409766963513408 0 0.8053554664352968
  endloop
endfacet
facet normal 0 1 0
  outer loop
    vertex 0.5000000000020616 0 1
    vertex 0.3829082620809298 0 0.7742952261641267
    vertex 0.2500000000010419 0 1
  endloop
endfacet
facet normal 0 1 0
  outer loop
    vertex 0.5000000000020616 0 1
    vertex 0.6409766963513408 0 0.8053554664352968
    vertex 0.3829082620809298 0 0.7742952261641267
  endloop
endfacet
facet normal 0 1 0
  outer loop
    vertex 0.3829082620809298 0 0.7742952261641267
    vertex 0.1815079327373219 0 0.8184920672627829
    vertex 0.2500000000010419 0 1
  endloop
endfacet
facet normal 0 1 -0
  outer loop
    vertex 1 0 0.2499999999994109
    vertex 0.7764715650677869 0 0.3930291389628999
    vertex 1 0 0.4999999999986918
  endloop
endfacet
facet normal 0 1 0
  outer loop
    vertex 1 0 0.2499999999994109
    vertex 0.8169872983440857 0 0.1830127010117793
    vertex 0.7764715650677869 0 0.3930291389628999
  endloop
endfacet
facet normal 0 1 -0
  outer loop
    vertex 1 0 0.4999999999986918
    vertex 0.802323440362934 0 0.6408098270524856
    vertex 1 0 0.7499999999993401
  endloop
endfacet
facet normal 0 1 0
  outer loop
    vertex 1 0 0.4999999999986918
    vertex 0.7764715650677869 0 0.3930291389628999
    vertex 0.802323440362934 0 0.6408098270524856
  endloop
endfacet
facet normal 0 1 0
  outer loop
    vertex 0.802323440362934 0 0.6408098270524856
    vertex 0.816987297978409 0 0.8169872979781388
    vertex 1 0 0.7499999999993401
  endloop
endfacet
facet normal 0 1 0
  outer loop
    vertex 0 0 0.4999999999986918
    vertex 0.2304597135959794 0 0.394236858063008
    vertex 0 0 0.2499999999994109
  endloop
endfacet
facet normal 0 1 0
  outer loop
    vertex 0.2304597135959794 0 0.394236858063008
    vertex 0.1830127020221846 0 0.1830127026658178
    vertex 0 0 0.2499999999994109
  endloop
endfacet
facet normal 0 1 0
  outer loop
    vertex 0 0 0.7499999999993401
    vertex 0.1815045070444808 0 0.6312063377111312
    vertex 0 0 0.4999999999986918
  endloop
endfacet
facet normal -0 1 0
  outer loop
    vertex 0 0 0.4999999999986918
    vertex 0.1815045070444808 0 0.6312063377111312
    vertex 0.2304597135959794 0 0.394236858063008
  endloop
endfacet
facet normal -0 1 0
  outer loop
    vertex 0 0 0.7499999999993401
    vertex 0.1815079327373219 0 0.8184920672627829
    vertex 0.1815045070444808 0 0.6312063377111312
  endloop
endfacet
facet normal 0 1 0
  outer loop
    vertex 0.6409766963513408 0 0.8053554664352968
    vertex 0.59364118107203 0 0.600040447068504
    vertex 0.3829082620809298 0 0.7742952261641267
  endloop
endfacet
facet normal 0 1 0
  outer loop
    vertex 0.3829082620809298 0 0.7742952261641267
    vertex 0.3773688476154244 0 0.5680660678454917
    vertex 0.1815045070444808 0 0.6312063377111312
  endloop
endfacet
facet normal 0 1 0
  outer loop
    vertex 0.1815045070444808 0 0.6312063377111312
    vertex 0.1815079327373219 0 0.8184920672627829
    vertex 0.3829082620809298 0 0.7742952261641267
  endloop
endfacet
facet normal 0 1 0
  outer loop
    vertex 0.3829082620809298 0 0.7742952261641267
    vertex 0.59364118107203 0 0.600040447068504
    vertex 0.3773688476154244 0 0.5680660678454917
  endloop
endfacet
facet normal 0 1 0
  outer loop
    vertex 0.3846687838341319 0 0.2109240761231569
    vertex 0.5030682643452562 0 0.4047588472198274
    vertex 0.6245279260048617 0 0.2113539509074936
  endloop
endfacet
facet normal 0 1 -0
  outer loop
    vertex 0.3846687838341319 0 0.2109240761231569
    vertex 0.2304597135959794 0 0.394236858063008
    vertex 0.5030682643452562 0 0.4047588472198274
  endloop
endfacet
facet normal 0 1 0
  outer loop
    vertex 0.3846687838341319 0 0.2109240761231569
    vertex 0.1830127020221846 0 0.1830127026658178
    vertex 0.2304597135959794 0 0.394236858063008
  endloop
endfacet
facet normal 0 1 -0
  outer loop
    vertex 0.7764715650677869 0 0.3930291389628999
    vertex 0.59364118107203 0 0.600040447068504
    vertex 0.802323440362934 0 0.6408098270524856
  endloop
endfacet
facet normal -0 1 0
  outer loop
    vertex 0.6409766963513408 0 0.8053554664352968
    vertex 0.816987297978409 0 0.8169872979781388
    vertex 0.802323440362934 0 0.6408098270524856
  endloop
endfacet
facet normal 0 1 0
  outer loop
    vertex 0.802323440362934 0 0.6408098270524856
    vertex 0.59364118107203 0 0.600040447068504
    vertex 0.6409766963513408 0 0.8053554664352968
  endloop
endfacet
facet normal 0 1 0
  outer loop
    vertex 0.5030682643452562 0 0.4047588472198274
    vertex 0.7764715650677869 0 0.3930291389628999
    vertex 0.6245279260048617 0 0.2113539509074936
  endloop
endfacet
facet normal 0 1 0
  outer loop
    vertex 0.7764715650677869 0 0.3930291389628999
    vertex 0.8169872983440857 0 0.1830127010117793
    vertex 0.6245279260048617 0 0.2113539509074936
  endloop
endfacet
facet normal 0 1 0
  outer loop
    vertex 0.2304597135959794 0 0.394236858063008
    vertex 0.3773688476154244 0 0.5680660678454917
    vertex 0.5030682643452562 0 0.4047588472198274
  endloop
endfacet
facet normal -0 1 0
  outer loop
    vertex 0.5030682643452562 0 0.4047588472198274
    vertex 0.59364118107203 0 0.600040447068504
    vertex 0.7764715650677869 0 0.3930291389628999
  endloop
endfacet
facet normal -0 1 0
  outer loop
    vertex 0.3773688476154244 0 0.5680660678454917
    vertex 0.59364118107203 0 0.600040447068504
    vertex 0.5030682643452562 0 0.4047588472198274
  endloop
endfacet
facet normal 0 1 0
  outer loop
    vertex 0.1815045070444808 0 0.6312063377111312
    vertex 0.3773688476154244 0 0.5680660678454917
    vertex 0.2304597135959794 0 0.394236858063008
  endloop
endfacet
facet normal 1 0 0
  outer loop
    vertex 0 0.2499999999994109 0
    vertex 0 0.183012701891818 0.183012701891818
    vertex 0 0 0
  endloop
endfacet
facet normal 1 0 0
  outer loop
    vertex 0 0 0
    vertex 0 0.183012701891818 0.183012701891818
    vertex 0 0 0.2499999999994109
  endloop
endfacet
facet normal 1 0 0
  outer loop
    vertex 0 1 0
    vertex 0 0.816987297978098 0.1830127026656376
    vertex 0 0.7499999999993401 0
  endloop
endfacet
facet normal 1 0 0
  outer loop
    vertex 0 1 0.2499999999994109
    vertex 0 0.816987297978098 0.1830127026656376
    vertex 0 1 0
  endloop
endfacet
facet normal 1 -0 0
  outer loop
    vertex 0 0 1
    vertex 0 0.1830127026656377 0.816987297978098
    vertex 0 0.2499999999994109 1
  endloop
endfacet
facet normal 1 0 0
  outer loop
    vertex 0 0 0.7499999999993401
    vertex 0 0.1830127026656377 0.816987297978098
    vertex 0 0 1
  endloop
endfacet
facet normal 1 -0 0
  outer loop
    vertex 0 0.7499999999993401 1
    vertex 0 0.8184920672683382 0.8184920672683382
    vertex 0 1 1
  endloop
endfacet
facet normal 1 0 0
  outer loop
    vertex 0 1 1
    vertex 0 0.8184920672683382 0.8184920672683382
    vertex 0 1 0.7499999999993401
  endloop
endfacet
facet normal 1 0 0
  outer loop
    vertex 0 0.4999999999986918 0
    vertex 0 0.3754720741933714 0.2113539518277431
    vertex 0 0.2499999999994109 0
  endloop
endfacet
facet normal 1 0 0
  outer loop
    vertex 0 0.3754720741933714 0.2113539518277431
    vertex 0 0.183012701891818 0.183012701891818
    vertex 0 0.2499999999994109 0
  endloop
endfacet
facet normal 1 0 0
  outer loop
    vertex 0 0.7499999999993401 0
    vertex 0 0.6153312163442728 0.210924076326279
    vertex 0 0.4999999999986918 0
  endloop
endfacet
facet normal 1 0 0
  outer loop
    vertex 0 0.6153312163442728 0.210924076326279
    vertex 0 0.3754720741933714 0.2113539518277431
    vertex 0 0.4999999999986918 0
  endloop
endfacet
facet normal 1 0 -0
  outer loop
    vertex 0 0.7499999999993401 0
    vertex 0 0.816987297978098 0.1830127026656376
    vertex 0 0.6153312163442728 0.210924076326279
  endloop
endfacet
facet normal 1 -0 0
  outer loop
    vertex 0 0.2499999999994109 1
    vertex 0 0.3590233032895218 0.8053554662084672
    vertex 0 0.4999999999986918 1
  endloop
endfacet
facet normal 1 0 0
  outer loop
    vertex 0 0.2499999999994109 1
    vertex 0 0.1830127026656377 0.816987297978098
    vertex 0 0.3590233032895218 0.8053554662084672
  endloop
endfacet
facet normal 1 -0 0
  outer loop
    vertex 0 0.4999999999986918 1
    vertex 0 0.6170917381413945 0.7742952261041663
    vertex 0 0.7499999999993401 1
  endloop
endfacet
facet normal 1 0 0
  outer loop
    vertex 0 0.4999999999986918 1
    vertex 0 0.3590233032895218 0.8053554662084672
    vertex 0 0.6170917381413945 0.7742952261041663
  endloop
endfacet
facet normal 1 0 0
  outer loop
    vertex 0 0.6170917381413945 0.7742952261041663
    vertex 0 0.8184920672683382 0.8184920672683382
    vertex 0 0.7499999999993401 1
  endloop
endfacet
facet normal 1 0 0
  outer loop
    vertex 0 0 0.2499999999994109
    vertex 0 0.2235284353964096 0.3930291394809293
    vertex 0 0 0.4999999999986918
  endloop
endfacet
facet normal 1 -0 0
  outer loop
    vertex 0 0 0.2499999999994109
    vertex 0 0.183012701891818 0.183012701891818
    vertex 0 0.2235284353964096 0.3930291394809293
  endloop
endfacet
facet normal 1 0 0
  outer loop
    vertex 0 0 0.4999999999986918
    vertex 0 0.1976765594203343 0.6408098271182379
    vertex 0 0 0.7499999999993401
  endloop
endfacet
facet normal 1 -0 0
  outer loop
    vertex 0 0 0.4999999999986918
    vertex 0 0.2235284353964096 0.3930291394809293
    vertex 0 0.1976765594203343 0.6408098271182379
  endloop
endfacet
facet normal 1 0 0
  outer loop
    vertex 0 0.1976765594203343 0.6408098271182379
    vertex 0 0.1830127026656377 0.816987297978098
    vertex 0 0 0.7499999999993401
  endloop
endfacet
facet normal 1 0 0
  outer loop
    vertex 0 1 0.4999999999986918
    vertex 0 0.7695402865545821 0.3942368581045613
    vertex 0 1 0.2499999999994109
  endloop
endfacet
facet normal 1 0 0
  outer loop
    vertex 0 0.7695402865545821 0.3942368581045613
    vertex 0 0.816987297978098 0.1830127026656376
    vertex 0 1 0.2499999999994109
  endloop
endfacet
facet normal 1 0 0
  outer loop
    vertex 0 1 0.7499999999993401
    vertex 0 0.8184954930814853 0.631206337710044
    vertex 0 1 0.4999999999986918
  endloop
endfacet
facet normal 1 0 0
  outer loop
    vertex 0 1 0.4999999999986918
    vertex 0 0.8184954930814853 0.631206337710044
    vertex 0 0.7695402865545821 0.3942368581045613
  endloop
endfacet
facet normal 1 0 0
  outer loop
    vertex 0 1 0.7499999999993401
    vertex 0 0.8184920672683382 0.8184920672683382
    vertex 0 0.8184954930814853 0.631206337710044
  endloop
endfacet
facet normal 1 0 0
  outer loop
    vertex 0 0.3590233032895218 0.8053554662084672
    vertex 0 0.4063588179957739 0.6000404461074683
    vertex 0 0.6170917381413945 0.7742952261041663
  endloop
endfacet
facet normal 1 0 0
  outer loop
    vertex 0 0.6170917381413945 0.7742952261041663
    vertex 0 0.6226311530688312 0.5680660676375914
    vertex 0 0.8184954930814853 0.631206337710044
  endloop
endfacet
facet normal 1 0 0
  outer loop
    vertex 0 0.8184954930814853 0.631206337710044
    vertex 0 0.8184920672683382 0.8184920672683382
    vertex 0 0.6170917381413945 0.7742952261041663
  endloop
endfacet
facet normal 1 0 0
  outer loop
    vertex 0 0.6170917381413945 0.7742952261041663
    vertex 0 0.4063588179957739 0.6000404461074683
    vertex 0 0.6226311530688312 0.5680660676375914
  endloop
endfacet
facet normal 1 0 0
  outer loop
    vertex 0 0.6153312163442728 0.210924076326279
    vertex 0 0.4969317363650172 0.4047588472500019
    vertex 0 0.3754720741933714 0.2113539518277431
  endloop
endfacet
facet normal 1 0 -0
  outer loop
    vertex 0 0.6153312163442728 0.210924076326279
    vertex 0 0.7695402865545821 0.3942368581045613
    vertex 0 0.4969317363650172 0.4047588472500019
  endloop
endfacet
facet normal 1 -0 0
  outer loop
    vertex 0 0.6153312163442728 0.210924076326279
    vertex 0 0.816987297978098 0.1830127026656376
    vertex 0 0.7695402865545821 0.3942368581045613
  endloop
endfacet
facet normal 1 0 -0
  outer loop
    vertex 0 0.2235284353964096 0.3930291394809293
    vertex 0 0.4063588179957739 0.6000404461074683
    vertex 0 0.1976765594203343 0.6408098271182379
  endloop
endfacet
facet normal 1 0 0
  outer loop
    vertex 0 0.3590233032895218 0.8053554662084672
    vertex 0 0.1830127026656377 0.816987297978098
    vertex 0 0.1976765594203343 0.6408098271182379
  endloop
endfacet
facet normal 1 -0 0
  outer loop
    vertex 0 0.1976765594203343 0.6408098271182379
    vertex 0 0.4063588179957739 0.6000404461074683
    vertex 0 0.3590233032895218 0.8053554662084672
  endloop
endfacet
facet normal 1 0 0
  outer loop
    vertex 0 0.4969317363650172 0.4047588472500019
    vertex 0 0.2235284353964096 0.3930291394809293
    vertex 0 0.3754720741933714 0.2113539518277431
  endloop
endfacet
facet normal 1 0 0
  outer loop
    vertex 0 0.2235284353964096 0.3930291394809293
    vertex 0 0.183012701891818 0.183012701891818
    vertex 0 0.3754720741933714 0.2113539518277431
  endloop
endfacet
facet normal 1 0 0
  outer loop
    vertex 0 0.7695402865545821 0.3942368581045613
    vertex 0 0.6226311530688312 0.5680660676375914
    vertex 0 0.4969317363650172 0.4047588472500019
  endloop
endfacet
facet normal 1 0 0
  outer loop
    vertex 0 0.4969317363650172 0.4047588472500019
    vertex 0 0.4063588179957739 0.6000404461074683
    vertex 0 0.2235284353964096 0.3930291394809293
  endloop
endfacet
facet normal 1 0 0
  outer loop
    vertex 0 0.6226311530688312 0.5680660676375914
    vertex 0 0.4063588179957739 0.6000404461074683
    vertex 0 0.4969317363650172 0.4047588472500019
  endloop
endfacet
facet normal 1 0 0
  outer loop
    vertex 0 0.8184954930814853 0.631206337710044
    vertex 0 0.6226311530688312 0.5680660676375914
    vertex 0 0.7695402865545821 0.3942368581045613
  endloop
endfacet
facet normal 0 -1 0
  outer loop
    vertex 1 1 0
    vertex 0.816987297978098 1 0.1830127026656376
    vertex 0.7499999999993401 1 0
  endloop
endfacet
facet normal 0 -1 -0
  outer loop
    vertex 1 1 0.2499999999994109
    vertex 0.816987297978098 1 0.1830127026656376
    vertex 1 1 0
  endloop
endfacet
facet normal 0 -1 0
  outer loop
    vertex 0.2499999999994109 1 0
    vertex 0.183012701891818 1 0.183012701891818
    vertex 0 1 0
  endloop
endfacet
facet normal 0 -1 0
  outer loop
    vertex 0 1 0
    vertex 0.183012701891818 1 0.183012701891818
    vertex 0 1 0.2499999999994109
  endloop
endfacet
facet normal 0 -1 0
  outer loop
    vertex 0.7499999999993401 1 1
    vertex 0.8184920672683383 1 0.8184920672683383
    vertex 1 1 1
  endloop
endfacet
facet normal 0 -1 -0
  outer loop
    vertex 1 1 1
    vertex 0.8184920672683383 1 0.8184920672683383
    vertex 1 1 0.7499999999993401
  endloop
endfacet
facet normal 0 -1 0
  outer loop
    vertex 0 1 1
    vertex 0.1830127026656377 1 0.816987297978098
    vertex 0.2499999999994109 1 1
  endloop
endfacet
facet normal 0 -1 0
  outer loop
    vertex 0 1 0.7499999999993401
    vertex 0.1830127026656377 1 0.816987297978098
    vertex 0 1 1
  endloop
endfacet
facet normal 0 -1 0
  outer loop
    vertex 0.4999999999986918 1 0
    vertex 0.3930291394809294 1 0.2235284353964097
    vertex 0.2499999999994109 1 0
  endloop
endfacet
facet normal 0 -1 0
  outer loop
    vertex 0.3930291394809294 1 0.2235284353964097
    vertex 0.183012701891818 1 0.183012701891818
    vertex 0.2499999999994109 1 0
  endloop
endfacet
facet normal 0 -1 0
  outer loop
    vertex 0.7499999999993401 1 0
    vertex 0.6408098271182379 1 0.1976765594203343
    vertex 0.4999999999986918 1 0
  endloop
endfacet
facet normal -0 -1 0
  outer loop
    vertex 0.6408098271182379 1 0.1976765594203343
    vertex 0.3930291394809294 1 0.2235284353964097
    vertex 0.4999999999986918 1 0
  endloop
endfacet
facet normal 0 -1 0
  outer loop
    vertex 0.7499999999993401 1 0
    vertex 0.816987297978098 1 0.1830127026656376
    vertex 0.6408098271182379 1 0.1976765594203343
  endloop
endfacet
facet normal 0 -1 0
  outer loop
    vertex 0.2499999999994109 1 1
    vertex 0.3942368581045613 1 0.7695402865545821
    vertex 0.4999999999986918 1 1
  endloop
endfacet
facet normal 0 -1 -0
  outer loop
    vertex 0.2499999999994109 1 1
    vertex 0.1830127026656377 1 0.816987297978098
    vertex 0.3942368581045613 1 0.7695402865545821
  endloop
endfacet
facet normal 0 -1 0
  outer loop
    vertex 0.4999999999986918 1 1
    vertex 0.631206337710044 1 0.8184954930814854
    vertex 0.7499999999993401 1 1
  endloop
endfacet
facet normal 0 -1 0
  outer loop
    vertex 0.3942368581045613 1 0.7695402865545821
    vertex 0.631206337710044 1 0.8184954930814854
    vertex 0.4999999999986918 1 1
  endloop
endfacet
facet normal 0 -1 0
  outer loop
    vertex 0.631206337710044 1 0.8184954930814854
    vertex 0.8184920672683383 1 0.8184920672683383
    vertex 0.7499999999993401 1 1
  endloop
endfacet
facet normal 0 -1 -0
  outer loop
    vertex 1 1 0.4999999999986918
    vertex 0.8053554662084675 1 0.3590233032895218
    vertex 1 1 0.2499999999994109
  endloop
endfacet
facet normal 0 -1 0
  outer loop
    vertex 0.8053554662084675 1 0.3590233032895218
    vertex 0.816987297978098 1 0.1830127026656376
    vertex 1 1 0.2499999999994109
  endloop
endfacet
facet normal 0 -1 -0
  outer loop
    vertex 1 1 0.7499999999993401
    vertex 0.7742952261041663 1 0.6170917381413945
    vertex 1 1 0.4999999999986918
  endloop
endfacet
facet normal 0 -1 0
  outer loop
    vertex 0.7742952261041663 1 0.6170917381413945
    vertex 0.8053554662084675 1 0.3590233032895218
    vertex 1 1 0.4999999999986918
  endloop
endfacet
facet normal -0 -1 0
  outer loop
    vertex 1 1 0.7499999999993401
    vertex 0.8184920672683383 1 0.8184920672683383
    vertex 0.7742952261041663 1 0.6170917381413945
  endloop
endfacet
facet normal 0 -1 0
  outer loop
    vertex 0 1 0.2499999999994109
    vertex 0.2113539518277431 1 0.3754720741933714
    vertex 0 1 0.4999999999986918
  endloop
endfacet
facet normal 0 -1 0
  outer loop
    vertex 0 1 0.2499999999994109
    vertex 0.183012701891818 1 0.183012701891818
    vertex 0.2113539518277431 1 0.3754720741933714
  endloop
endfacet
facet normal 0 -1 0
  outer loop
    vertex 0 1 0.4999999999986918
    vertex 0.210924076326279 1 0.6153312163442728
    vertex 0 1 0.7499999999993401
  endloop
endfacet
facet normal 0 -1 0
  outer loop
    vertex 0 1 0.4999999999986918
    vertex 0.2113539518277431 1 0.3754720741933714
    vertex 0.210924076326279 1 0.6153312163442728
  endloop
endfacet
facet normal 0 -1 0
  outer loop
    vertex 0.210924076326279 1 0.6153312163442728
    vertex 0.1830127026656377 1 0.816987297978098
    vertex 0 1 0.7499999999993401
  endloop
endfacet
facet normal 0 -1 -0
  outer loop
    vertex 0.7742952261041663 1 0.6170917381413945
    vertex 0.6000404461074685 1 0.4063588179957741
    vertex 0.8053554662084675 1 0.3590233032895218
  endloop
endfacet
facet normal 0 -1 -0
  outer loop
    vertex 0.631206337710044 1 0.8184954930814854
    vertex 0.5680660676375914 1 0.6226311530688312
    vertex 0.7742952261041663 1 0.6170917381413945
  endloop
endfacet
facet normal 0 -1 0
  outer loop
    vertex 0.7742952261041663 1 0.6170917381413945
    vertex 0.8184920672683383 1 0.8184920672683383
    vertex 0.631206337710044 1 0.8184954930814854
  endloop
endfacet
facet normal 0 -1 0
  outer loop
    vertex 0.5680660676375914 1 0.6226311530688312
    vertex 0.6000404461074685 1 0.4063588179957741
    vertex 0.7742952261041663 1 0.6170917381413945
  endloop
endfacet
facet normal 0 -1 0
  outer loop
    vertex 0.2113539518277431 1 0.3754720741933714
    vertex 0.4047588472500019 1 0.4969317363650173
    vertex 0.210924076326279 1 0.6153312163442728
  endloop
endfacet
facet normal 0 -1 0
  outer loop
    vertex 0.4047588472500019 1 0.4969317363650173
    vertex 0.3942368581045613 1 0.7695402865545821
    vertex 0.210924076326279 1 0.6153312163442728
  endloop
endfacet
facet normal -0 -1 0
  outer loop
    vertex 0.3942368581045613 1 0.7695402865545821
    vertex 0.1830127026656377 1 0.816987297978098
    vertex 0.210924076326279 1 0.6153312163442728
  endloop
endfacet
facet normal 0 -1 0
  outer loop
    vertex 0.6408098271182379 1 0.1976765594203343
    vertex 0.6000404461074685 1 0.4063588179957741
    vertex 0.3930291394809294 1 0.2235284353964097
  endloop
endfacet
facet normal 0 -1 0
  outer loop
    vertex 0.6408098271182379 1 0.1976765594203343
    vertex 0.816987297978098 1 0.1830127026656376
    vertex 0.8053554662084675 1 0.3590233032895218
  endloop
endfacet
facet normal -0 -1 0
  outer loop
    vertex 0.8053554662084675 1 0.3590233032895218
    vertex 0.6000404461074685 1 0.4063588179957741
    vertex 0.6408098271182379 1 0.1976765594203343
  endloop
endfacet
facet normal 0 -1 0
  outer loop
    vertex 0.2113539518277431 1 0.3754720741933714
    vertex 0.3930291394809294 1 0.2235284353964097
    vertex 0.4047588472500019 1 0.4969317363650173
  endloop
endfacet
facet normal 0 -1 -0
  outer loop
    vertex 0.2113539518277431 1 0.3754720741933714
    vertex 0.183012701891818 1 0.183012701891818
    vertex 0.3930291394809294 1 0.2235284353964097
  endloop
endfacet
facet normal 0 -1 0
  outer loop
    vertex 0.4047588472500019 1 0.4969317363650173
    vertex 0.5680660676375914 1 0.6226311530688312
    vertex 0.3942368581045613 1 0.7695402865545821
  endloop
endfacet
facet normal 0 -1 0
  outer loop
    vertex 0.3930291394809294 1 0.2235284353964097
    vertex 0.6000404461074685 1 0.4063588179957741
    vertex 0.4047588472500019 1 0.4969317363650173
  endloop
endfacet
facet normal 0 -1 0
  outer loop
    vertex 0.4047588472500019 1 0.4969317363650173
    vertex 0.6000404461074685 1 0.4063588179957741
    vertex 0.5680660676375914 1 0.6226311530688312
  endloop
endfacet
facet normal 0 -1 0
  outer loop
    vertex 0.3942368581045613 1 0.7695402865545821
    vertex 0.5680660676375914 1 0.6226311530688312
    vertex 0.631206337710044 1 0.8184954930814854
  endloop
endfacet
facet normal 0 -0 -1
  outer loop
    vertex 1 1 1
    vertex 1 0.7500000000003477 1
    vertex 0.8169872981071885 0.8169872981074585 1
  endloop
endfacet
facet normal 0 0 -1
  outer loop
    vertex 0.7499999999993401 1 1
    vertex 1 1 1
    vertex 0.8169872981071885 0.8169872981074585 1
  endloop
endfacet
facet normal 0 -0 -1
  outer loop
    vertex 1 0.2500000000010419 1
    vertex 1 0 1
    vertex 0.8169872981072783 0.1830127018930938 1
  endloop
endfacet
facet normal 0 0 -1
  outer loop
    vertex 1 0 1
    vertex 0.7500000000003477 0 1
    vertex 0.8169872981072783 0.1830127018930938 1
  endloop
endfacet
facet normal 0 0 -1
  outer loop
    vertex 0.2500000000010419 0 1
    vertex 0 0 1
    vertex 0.1830127018931349 0.1830127018926979 1
  endloop
endfacet
facet normal 0 0 -1
  outer loop
    vertex 0 0 1
    vertex 0 0.2499999999994109 1
    vertex 0.1830127018931349 0.1830127018926979 1
  endloop
endfacet
facet normal 0 0 -1
  outer loop
    vertex 0 0.7499999999993401 1
    vertex 0 1 1
    vertex 0.1780061950165382 0.8351749060017322 1
  endloop
endfacet
facet normal 0 0 -1
  outer loop
    vertex 0 1 1
    vertex 0.2499999999994109 1 1
    vertex 0.1780061950165382 0.8351749060017322 1
  endloop
endfacet
facet normal 0 -0 -1
  outer loop
    vertex 1 0.7500000000003477 1
    vertex 1 0.5000000000020616 1
    vertex 0.7478815024664029 0.6139924015723902 1
  endloop
endfacet
facet normal -0 0 -1
  outer loop
    vertex 1 0.7500000000003477 1
    vertex 0.7478815024664029 0.6139924015723902 1
    vertex 0.8169872981071885 0.8169872981074585 1
  endloop
endfacet
facet normal 0 -0 -1
  outer loop
    vertex 1 0.5000000000020616 1
    vertex 1 0.2500000000010419 1
    vertex 0.7867687832230401 0.3640932128839356 1
  endloop
endfacet
facet normal -0 0 -1
  outer loop
    vertex 1 0.5000000000020616 1
    vertex 0.7867687832230401 0.3640932128839356 1
    vertex 0.7478815024664029 0.6139924015723902 1
  endloop
endfacet
facet normal 0 0 -1
  outer loop
    vertex 0.7867687832230401 0.3640932128839356 1
    vertex 1 0.2500000000010419 1
    vertex 0.8169872981072783 0.1830127018930938 1
  endloop
endfacet
facet normal 0 0 -1
  outer loop
    vertex 0.7500000000003477 0 1
    vertex 0.5000000000020616 0 1
    vertex 0.6215671767908426 0.1979210047255828 1
  endloop
endfacet
facet normal 0 0 -1
  outer loop
    vertex 0.7500000000003477 0 1
    vertex 0.6215671767908426 0.1979210047255828 1
    vertex 0.8169872981072783 0.1830127018930938 1
  endloop
endfacet
facet normal 0 0 -1
  outer loop
    vertex 0.5000000000020616 0 1
    vertex 0.2500000000010419 0 1
    vertex 0.3753337416957952 0.2110423218192964 1
  endloop
endfacet
facet normal 0 0 -1
  outer loop
    vertex 0.5000000000020616 0 1
    vertex 0.3753337416957952 0.2110423218192964 1
    vertex 0.6215671767908426 0.1979210047255828 1
  endloop
endfacet
facet normal 0 0 -1
  outer loop
    vertex 0.3753337416957952 0.2110423218192964 1
    vertex 0.2500000000010419 0 1
    vertex 0.1830127018931349 0.1830127018926979 1
  endloop
endfacet
facet normal 0 0 -1
  outer loop
    vertex 0 0.2499999999994109 1
    vertex 0 0.4999999999986918 1
    vertex 0.2167990069479855 0.3712961061742477 1
  endloop
endfacet
facet normal 0 0 -1
  outer loop
    vertex 0 0.2499999999994109 1
    vertex 0.2167990069479855 0.3712961061742477 1
    vertex 0.1830127018931349 0.1830127018926979 1
  endloop
endfacet
facet normal 0 0 -1
  outer loop
    vertex 0 0.4999999999986918 1
    vertex 0 0.7499999999993401 1
    vertex 0.2544869979106267 0.614600373335793 1
  endloop
endfacet
facet normal 0 0 -1
  outer loop
    vertex 0 0.4999999999986918 1
    vertex 0.2544869979106267 0.614600373335793 1
    vertex 0.2167990069479855 0.3712961061742477 1
  endloop
endfacet
facet normal 0 0 -1
  outer loop
    vertex 0.2544869979106267 0.614600373335793 1
    vertex 0 0.7499999999993401 1
    vertex 0.1780061950165382 0.8351749060017322 1
  endloop
endfacet
facet normal 0 0 -1
  outer loop
    vertex 0.2499999999994109 1 1
    vertex 0.4999999999986918 1 1
    vertex 0.3855439771726533 0.8112741566735273 1
  endloop
endfacet
facet normal 0 -0 -1
  outer loop
    vertex 0.2499999999994109 1 1
    vertex 0.3855439771726533 0.8112741566735273 1
    vertex 0.1780061950165382 0.8351749060017322 1
  endloop
endfacet
facet normal 0 0 -1
  outer loop
    vertex 0.4999999999986918 1 1
    vertex 0.7499999999993401 1 1
    vertex 0.6243689539557369 0.8080509614599705 1
  endloop
endfacet
facet normal 0 -0 -1
  outer loop
    vertex 0.4999999999986918 1 1
    vertex 0.6243689539557369 0.8080509614599705 1
    vertex 0.3855439771726533 0.8112741566735273 1
  endloop
endfacet
facet normal 0 0 -1
  outer loop
    vertex 0.6243689539557369 0.8080509614599705 1
    vertex 0.7499999999993401 1 1
    vertex 0.8169872981071885 0.8169872981074585 1
  endloop
endfacet
facet normal -0 0 -1
  outer loop
    vertex 0.7867687832230401 0.3640932128839356 1
    vertex 0.6215671767908426 0.1979210047255828 1
    vertex 0.50565027269992 0.4308090314147043 1
  endloop
endfacet
facet normal 0 0 -1
  outer loop
    vertex 0.6215671767908426 0.1979210047255828 1
    vertex 0.7867687832230401 0.3640932128839356 1
    vertex 0.8169872981072783 0.1830127018930938 1
  endloop
endfacet
facet normal 0 0 -1
  outer loop
    vertex 0.7867687832230401 0.3640932128839356 1
    vertex 0.50565027269992 0.4308090314147043 1
    vertex 0.7478815024664029 0.6139924015723902 1
  endloop
endfacet
facet normal 0 0 -1
  outer loop
    vertex 0.6215671767908426 0.1979210047255828 1
    vertex 0.3753337416957952 0.2110423218192964 1
    vertex 0.50565027269992 0.4308090314147043 1
  endloop
endfacet
facet normal 0 0 -1
  outer loop
    vertex 0.50565027269992 0.4308090314147043 1
    vertex 0.3753337416957952 0.2110423218192964 1
    vertex 0.2167990069479855 0.3712961061742477 1
  endloop
endfacet
facet normal 0 -0 -1
  outer loop
    vertex 0.2167990069479855 0.3712961061742477 1
    vertex 0.3753337416957952 0.2110423218192964 1
    vertex 0.1830127018931349 0.1830127018926979 1
  endloop
endfacet
facet normal 0 -0 -1
  outer loop
    vertex 0.2544869979106267 0.614600373335793 1
    vertex 0.50565027269992 0.4308090314147043 1
    vertex 0.2167990069479855 0.3712961061742477 1
  endloop
endfacet
facet normal 0 0 -1
  outer loop
    vertex 0.50565027269992 0.4308090314147043 1
    vertex 0.2544869979106267 0.614600373335793 1
    vertex 0.503586340841068 0.6557453848912771 1
  endloop
endfacet
facet normal 0 0 -1
  outer loop
    vertex 0.2544869979106267 0.614600373335793 1
    vertex 0.3855439771726533 0.8112741566735273 1
    vertex 0.503586340841068 0.6557453848912771 1
  endloop
endfacet
facet normal -0 0 -1
  outer loop
    vertex 0.3855439771726533 0.8112741566735273 1
    vertex 0.2544869979106267 0.614600373335793 1
    vertex 0.1780061950165382 0.8351749060017322 1
  endloop
endfacet
facet normal 0 -0 -1
  outer loop
    vertex 0.6243689539557369 0.8080509614599705 1
    vertex 0.7478815024664029 0.6139924015723902 1
    vertex 0.503586340841068 0.6557453848912771 1
  endloop
endfacet
facet normal 0 0 -1
  outer loop
    vertex 0.7478815024664029 0.6139924015723902 1
    vertex 0.6243689539557369 0.8080509614599705 1
    vertex 0.8169872981071885 0.8169872981074585 1
  endloop
endfacet
facet normal 0 0 -1
  outer loop
    vertex 0.3855439771726533 0.8112741566735273 1
    vertex 0.6243689539557369 0.8080509614599705 1
    vertex 0.503586340841068 0.6557453848912771 1
  endloop
endfacet
facet normal -0 0 -1
  outer loop
    vertex 0.7478815024664029 0.6139924015723902 1
    vertex 0.50565027269992 0.4308090314147043 1
    vertex 0.503586340841068 0.6557453848912771 1
  endloop
endfacet
endsolid Created by Gmsh
